<?xml version="1.0" encoding="utf-8"?>
<!-- Generator: Adobe Illustrator 16.0.0, SVG Export Plug-In . SVG Version: 6.00 Build 0)  -->
<!DOCTYPE svg PUBLIC "-//W3C//DTD SVG 1.1//EN" "http://www.w3.org/Graphics/SVG/1.1/DTD/svg11.dtd">
<svg version="1.1" id="Layer_1" xmlns="http://www.w3.org/2000/svg" xmlns:xlink="http://www.w3.org/1999/xlink" x="0px" y="0px"
	 width="146px" height="132px" viewBox="0 0 146 132" enable-background="new 0 0 146 132" xml:space="preserve">
<g>
	<g>
		<defs>
			<rect id="SVGID_1_" x="-70.171" y="-90.831" width="271.107" height="350.845"/>
		</defs>
		<clipPath id="SVGID_2_">
			<use xlink:href="#SVGID_1_"  overflow="visible"/>
		</clipPath>
		<path clip-path="url(#SVGID_2_)" fill="#F47524" d="M39.232,70.084L39.232,70.084c-6.729,0-12.182-5.455-12.182-12.183
			s5.454-12.182,12.182-12.182c6.728,0,12.182,5.454,12.182,12.182S45.96,70.084,39.232,70.084"/>
		<path clip-path="url(#SVGID_2_)" fill="none" stroke="#21418B" stroke-miterlimit="10" d="M39.232,70.084L39.232,70.084
			c-6.729,0-12.182-5.455-12.182-12.183s5.454-12.182,12.182-12.182c6.728,0,12.182,5.454,12.182,12.182S45.96,70.084,39.232,70.084
			z"/>
		<path clip-path="url(#SVGID_2_)" fill="#20438A" d="M39.232,65.654L39.232,65.654c-4.282,0-7.752-3.471-7.752-7.752
			c0-4.282,3.471-7.752,7.752-7.752c4.281,0,7.752,3.47,7.752,7.752C46.984,62.183,43.513,65.654,39.232,65.654"/>
		<path clip-path="url(#SVGID_2_)" fill="none" stroke="#21418B" stroke-miterlimit="10" d="M39.232,65.654L39.232,65.654
			c-4.282,0-7.752-3.471-7.752-7.752c0-4.282,3.471-7.752,7.752-7.752c4.281,0,7.752,3.47,7.752,7.752
			C46.984,62.183,43.513,65.654,39.232,65.654z"/>
		<polygon clip-path="url(#SVGID_2_)" fill="#FFFFFF" points="32.853,51.188 32.338,49.111 34.123,50.291 		"/>
		<polygon clip-path="url(#SVGID_2_)" fill="none" stroke="#FDFDFE" stroke-miterlimit="10" points="32.853,51.188 32.338,49.111 
			34.123,50.291 		"/>
		<polygon clip-path="url(#SVGID_2_)" fill="#FFFFFF" points="31.161,53.748 29.601,52.283 31.741,52.306 		"/>
		<polygon clip-path="url(#SVGID_2_)" fill="none" stroke="#FDFDFE" stroke-miterlimit="10" points="31.161,53.748 29.601,52.283 
			31.741,52.306 		"/>
		<polygon clip-path="url(#SVGID_2_)" fill="#FFFFFF" points="35.594,49.376 35.748,47.243 37.079,48.917 		"/>
		<polygon clip-path="url(#SVGID_2_)" fill="none" stroke="#FDFDFE" stroke-miterlimit="10" points="35.594,49.376 35.748,47.243 
			37.079,48.917 		"/>
		<path clip-path="url(#SVGID_2_)" fill="#FFFFFF" d="M104.144,80.822L104.144,80.822c-14.679,0-26.579-11.9-26.579-26.58
			s11.9-26.579,26.579-26.579s26.58,11.9,26.58,26.579S118.823,80.822,104.144,80.822"/>
		<path clip-path="url(#SVGID_2_)" fill="#F47524" d="M109.571,70.633L109.571,70.633c-6.729,0-12.182-5.455-12.182-12.182
			c0-6.728,5.454-12.182,12.182-12.182c6.728,0,12.182,5.454,12.182,12.182C121.753,65.179,116.298,70.633,109.571,70.633"/>
		<path clip-path="url(#SVGID_2_)" fill="none" stroke="#21418B" stroke-miterlimit="10" d="M109.571,70.633L109.571,70.633
			c-6.729,0-12.182-5.455-12.182-12.182c0-6.728,5.454-12.182,12.182-12.182c6.728,0,12.182,5.454,12.182,12.182
			C121.753,65.179,116.298,70.633,109.571,70.633z"/>
		<path clip-path="url(#SVGID_2_)" fill="#20438A" d="M109.571,66.203L109.571,66.203c-4.282,0-7.752-3.471-7.752-7.752
			c0-4.282,3.471-7.752,7.752-7.752c4.281,0,7.752,3.471,7.752,7.752C117.323,62.732,113.852,66.203,109.571,66.203"/>
		<path clip-path="url(#SVGID_2_)" fill="none" stroke="#21418B" stroke-miterlimit="10" d="M109.571,66.203L109.571,66.203
			c-4.282,0-7.752-3.471-7.752-7.752c0-4.282,3.471-7.752,7.752-7.752c4.281,0,7.752,3.471,7.752,7.752
			C117.323,62.732,113.852,66.203,109.571,66.203z"/>
		<polygon clip-path="url(#SVGID_2_)" fill="#FFFFFF" points="103.191,51.737 102.677,49.661 104.461,50.841 		"/>
		<polygon clip-path="url(#SVGID_2_)" fill="none" stroke="#FDFDFE" stroke-miterlimit="10" points="103.191,51.737 102.677,49.661 
			104.461,50.841 		"/>
		<polygon clip-path="url(#SVGID_2_)" fill="#FFFFFF" points="101.499,54.297 99.939,52.833 102.079,52.855 		"/>
		<polygon clip-path="url(#SVGID_2_)" fill="none" stroke="#FDFDFE" stroke-miterlimit="10" points="101.499,54.297 99.939,52.833 
			102.079,52.855 		"/>
		<polygon clip-path="url(#SVGID_2_)" fill="#FFFFFF" points="105.933,49.926 106.086,47.792 107.417,49.467 		"/>
		<polygon clip-path="url(#SVGID_2_)" fill="none" stroke="#FDFDFE" stroke-miterlimit="10" points="105.933,49.926 106.086,47.792 
			107.417,49.467 		"/>
		<g clip-path="url(#SVGID_2_)">
			<path fill="#20438A" d="M51.053,75.283c-1.677-1.34-4.491,0.35-7.974,1.329c0,0-6.938,1.951-15.062-0.443
				c-1.768-0.521-9.716-3.146-13.954-10.853c-5.132-9.333-1.519-21.909,4.873-28.351c1.133-1.143,4.917-5.053,10.632-6.423
				c2.813-0.675,5.347-0.669,7.752-0.886c2.456-0.222,6.192,0.467,7.309,0.665c0.149,0.026,0.298,0.004,0.447-0.04l-0.035-6.539
				c-3.863-1.408-11.593-1.337-15.916-0.51c-7.888,1.51-13.013,6.017-14.619,7.531C8.09,36.813,6.26,43.932,5.647,46.489
				c-0.579,2.414-3.706,15.455,4.43,26.136c3.912,5.137,8.698,7.423,11.739,8.86c2.25,1.063,4.321,1.752,6.223,2.202
				c1.718,0.407,4.589,0.962,8.396,0.9c3.702-0.061,13.174-0.744,16.213-4.652C54.198,77.941,52.174,76.179,51.053,75.283z"/>
		</g>
	</g>
	<text transform="matrix(1.2365 0 0 1 39.084 126.4292)" fill="#21418B" font-family="'CenturyGothic'" font-size="85.9846">3</text>
	<text transform="matrix(1 0 0 1 73.6509 84.5908)" fill="#21418B" font-family="'CenturyGothic'" font-size="106.3166">d</text>
	<line fill="none" x1="44.12" y1="17.849" x2="44.12" y2="38.226"/>
</g>
</svg>
